<mxfile host="app.diagrams.net" agent="Mozilla/5.0 (X11; Linux x86_64) AppleWebKit/537.36 (KHTML, like Gecko) Chrome/130.0.6723.1056 YaBrowser/24.12.4.1056 (beta) Yowser/2.5 Safari/537.36" version="26.1.1">
  <diagram id="bheeykxJRIQJlu7Mol8l" name="Страница — 1">
    <mxGraphModel dx="1616" dy="799" grid="1" gridSize="10" guides="1" tooltips="1" connect="1" arrows="1" fold="1" page="1" pageScale="1" pageWidth="827" pageHeight="1169" math="0" shadow="0">
      <root>
        <mxCell id="0" />
        <mxCell id="1" parent="0" />
        <mxCell id="tlFTheRUR7GdCliaLoxq-1" value="&lt;font&gt;Авиакомпания&lt;/font&gt;" style="rounded=0;whiteSpace=wrap;html=1;fontSize=14;" parent="1" vertex="1">
          <mxGeometry x="159" y="170" width="120" height="40" as="geometry" />
        </mxCell>
        <mxCell id="tlFTheRUR7GdCliaLoxq-3" value="" style="endArrow=none;html=1;rounded=0;fontSize=14;exitX=1;exitY=0.5;exitDx=0;exitDy=0;entryX=0.054;entryY=0.5;entryDx=0;entryDy=0;entryPerimeter=0;" parent="1" source="tlFTheRUR7GdCliaLoxq-1" target="tlFTheRUR7GdCliaLoxq-8" edge="1">
          <mxGeometry width="50" height="50" relative="1" as="geometry">
            <mxPoint x="334" y="280" as="sourcePoint" />
            <mxPoint x="319" y="190" as="targetPoint" />
          </mxGeometry>
        </mxCell>
        <mxCell id="tlFTheRUR7GdCliaLoxq-6" style="edgeStyle=orthogonalEdgeStyle;rounded=0;orthogonalLoop=1;jettySize=auto;html=1;exitX=1;exitY=0.5;exitDx=0;exitDy=0;entryX=0;entryY=0.5;entryDx=0;entryDy=0;strokeColor=none;fontSize=14;" parent="1" edge="1">
          <mxGeometry relative="1" as="geometry">
            <mxPoint x="399" y="190" as="sourcePoint" />
            <mxPoint x="439" y="190" as="targetPoint" />
          </mxGeometry>
        </mxCell>
        <mxCell id="tlFTheRUR7GdCliaLoxq-21" style="edgeStyle=orthogonalEdgeStyle;rounded=0;orthogonalLoop=1;jettySize=auto;html=1;exitX=0.5;exitY=1;exitDx=0;exitDy=0;entryX=0.5;entryY=0;entryDx=0;entryDy=0;endArrow=none;startFill=0;fontSize=14;" parent="1" source="tlFTheRUR7GdCliaLoxq-8" target="tlFTheRUR7GdCliaLoxq-20" edge="1">
          <mxGeometry relative="1" as="geometry" />
        </mxCell>
        <mxCell id="tlFTheRUR7GdCliaLoxq-8" value="Осуществляет" style="rhombus;whiteSpace=wrap;html=1;fontSize=14;" parent="1" vertex="1">
          <mxGeometry x="434" y="155" width="130" height="70" as="geometry" />
        </mxCell>
        <mxCell id="tlFTheRUR7GdCliaLoxq-187" style="edgeStyle=orthogonalEdgeStyle;rounded=0;orthogonalLoop=1;jettySize=auto;html=1;endArrow=none;startFill=0;fontSize=14;entryX=0;entryY=0.5;entryDx=0;entryDy=0;" parent="1" source="tlFTheRUR7GdCliaLoxq-20" target="tlFTheRUR7GdCliaLoxq-189" edge="1">
          <mxGeometry relative="1" as="geometry">
            <mxPoint x="589" y="285" as="targetPoint" />
          </mxGeometry>
        </mxCell>
        <mxCell id="tlFTheRUR7GdCliaLoxq-20" value="Пассажирские&lt;div&gt;авиаперевозки&lt;/div&gt;" style="whiteSpace=wrap;html=1;fontSize=14;" parent="1" vertex="1">
          <mxGeometry x="439" y="255" width="120" height="60" as="geometry" />
        </mxCell>
        <mxCell id="tlFTheRUR7GdCliaLoxq-169" style="edgeStyle=orthogonalEdgeStyle;rounded=0;orthogonalLoop=1;jettySize=auto;html=1;entryX=0.5;entryY=1;entryDx=0;entryDy=0;endArrow=none;startFill=0;fontSize=14;" parent="1" source="tlFTheRUR7GdCliaLoxq-164" target="tlFTheRUR7GdCliaLoxq-1" edge="1">
          <mxGeometry relative="1" as="geometry" />
        </mxCell>
        <mxCell id="tlFTheRUR7GdCliaLoxq-170" style="edgeStyle=orthogonalEdgeStyle;rounded=0;orthogonalLoop=1;jettySize=auto;html=1;exitX=1;exitY=0.5;exitDx=0;exitDy=0;entryX=0;entryY=0.5;entryDx=0;entryDy=0;endArrow=none;startFill=0;fontSize=14;" parent="1" source="tlFTheRUR7GdCliaLoxq-164" target="tlFTheRUR7GdCliaLoxq-165" edge="1">
          <mxGeometry relative="1" as="geometry" />
        </mxCell>
        <mxCell id="tlFTheRUR7GdCliaLoxq-164" value="Заключает" style="rhombus;whiteSpace=wrap;html=1;fontSize=14;" parent="1" vertex="1">
          <mxGeometry x="179" y="375" width="80" height="60" as="geometry" />
        </mxCell>
        <mxCell id="tlFTheRUR7GdCliaLoxq-165" value="Договоры" style="rounded=0;whiteSpace=wrap;html=1;fontSize=14;" parent="1" vertex="1">
          <mxGeometry x="367" y="385" width="120" height="40" as="geometry" />
        </mxCell>
        <mxCell id="tlFTheRUR7GdCliaLoxq-168" style="edgeStyle=orthogonalEdgeStyle;rounded=0;orthogonalLoop=1;jettySize=auto;html=1;exitX=0.5;exitY=0;exitDx=0;exitDy=0;entryX=0.5;entryY=1;entryDx=0;entryDy=0;endArrow=none;startFill=0;fontSize=14;" parent="1" source="tlFTheRUR7GdCliaLoxq-166" target="tlFTheRUR7GdCliaLoxq-164" edge="1">
          <mxGeometry relative="1" as="geometry" />
        </mxCell>
        <mxCell id="tlFTheRUR7GdCliaLoxq-226" style="edgeStyle=orthogonalEdgeStyle;rounded=0;orthogonalLoop=1;jettySize=auto;html=1;entryX=0.5;entryY=0;entryDx=0;entryDy=0;endArrow=none;startFill=0;fontSize=14;" parent="1" source="tlFTheRUR7GdCliaLoxq-166" target="tlFTheRUR7GdCliaLoxq-225" edge="1">
          <mxGeometry relative="1" as="geometry" />
        </mxCell>
        <mxCell id="tlFTheRUR7GdCliaLoxq-166" value="Люди" style="rounded=0;whiteSpace=wrap;html=1;fontSize=14;" parent="1" vertex="1">
          <mxGeometry x="159" y="495" width="120" height="40" as="geometry" />
        </mxCell>
        <mxCell id="tlFTheRUR7GdCliaLoxq-173" value="" style="edgeStyle=orthogonalEdgeStyle;rounded=0;orthogonalLoop=1;jettySize=auto;html=1;endArrow=none;startFill=0;exitX=1;exitY=0.5;exitDx=0;exitDy=0;fontSize=14;" parent="1" source="tlFTheRUR7GdCliaLoxq-165" target="tlFTheRUR7GdCliaLoxq-172" edge="1">
          <mxGeometry relative="1" as="geometry">
            <mxPoint x="629" y="405" as="targetPoint" />
            <mxPoint x="509" y="405" as="sourcePoint" />
          </mxGeometry>
        </mxCell>
        <mxCell id="Wab1xlXWel476RkCuXvU-1" style="edgeStyle=orthogonalEdgeStyle;rounded=0;orthogonalLoop=1;jettySize=auto;html=1;entryX=1;entryY=0.5;entryDx=0;entryDy=0;endArrow=none;startFill=0;" parent="1" source="tlFTheRUR7GdCliaLoxq-172" target="tlFTheRUR7GdCliaLoxq-178" edge="1">
          <mxGeometry relative="1" as="geometry" />
        </mxCell>
        <mxCell id="Wab1xlXWel476RkCuXvU-13" style="edgeStyle=orthogonalEdgeStyle;rounded=0;orthogonalLoop=1;jettySize=auto;html=1;entryX=0;entryY=0.5;entryDx=0;entryDy=0;endArrow=none;startFill=0;" parent="1" source="tlFTheRUR7GdCliaLoxq-172" target="Wab1xlXWel476RkCuXvU-12" edge="1">
          <mxGeometry relative="1" as="geometry" />
        </mxCell>
        <mxCell id="tlFTheRUR7GdCliaLoxq-172" value="Определяют" style="rhombus;whiteSpace=wrap;html=1;fontSize=14;" parent="1" vertex="1">
          <mxGeometry x="549" y="365" width="120" height="80" as="geometry" />
        </mxCell>
        <mxCell id="tlFTheRUR7GdCliaLoxq-174" value="&amp;nbsp;Пункты" style="rounded=0;whiteSpace=wrap;html=1;fontSize=14;" parent="1" vertex="1">
          <mxGeometry x="1340" y="325" width="120" height="50" as="geometry" />
        </mxCell>
        <mxCell id="tlFTheRUR7GdCliaLoxq-176" value="" style="endArrow=none;html=1;rounded=0;entryX=0;entryY=0.75;entryDx=0;entryDy=0;startFill=0;fontSize=14;exitX=1;exitY=0.5;exitDx=0;exitDy=0;" parent="1" source="Wab1xlXWel476RkCuXvU-19" target="tlFTheRUR7GdCliaLoxq-174" edge="1">
          <mxGeometry width="50" height="50" relative="1" as="geometry">
            <mxPoint x="1280" y="380" as="sourcePoint" />
            <mxPoint x="739" y="565" as="targetPoint" />
          </mxGeometry>
        </mxCell>
        <mxCell id="tlFTheRUR7GdCliaLoxq-181" style="edgeStyle=orthogonalEdgeStyle;rounded=0;orthogonalLoop=1;jettySize=auto;html=1;exitX=0;exitY=0.5;exitDx=0;exitDy=0;entryX=1;entryY=0.5;entryDx=0;entryDy=0;endArrow=none;startFill=0;fontSize=14;" parent="1" source="tlFTheRUR7GdCliaLoxq-178" target="tlFTheRUR7GdCliaLoxq-180" edge="1">
          <mxGeometry relative="1" as="geometry" />
        </mxCell>
        <mxCell id="tlFTheRUR7GdCliaLoxq-178" value="Багаж" style="rounded=0;whiteSpace=wrap;html=1;fontSize=14;" parent="1" vertex="1">
          <mxGeometry x="460" y="633" width="120" height="40" as="geometry" />
        </mxCell>
        <mxCell id="tlFTheRUR7GdCliaLoxq-182" style="edgeStyle=orthogonalEdgeStyle;rounded=0;orthogonalLoop=1;jettySize=auto;html=1;exitX=0;exitY=0.5;exitDx=0;exitDy=0;entryX=1;entryY=0.5;entryDx=0;entryDy=0;endArrow=none;startFill=0;fontSize=14;" parent="1" source="tlFTheRUR7GdCliaLoxq-180" target="tlFTheRUR7GdCliaLoxq-224" edge="1">
          <mxGeometry relative="1" as="geometry" />
        </mxCell>
        <mxCell id="tlFTheRUR7GdCliaLoxq-180" value="Перевозит" style="rhombus;whiteSpace=wrap;html=1;fontSize=14;" parent="1" vertex="1">
          <mxGeometry x="334" y="628" width="100" height="50" as="geometry" />
        </mxCell>
        <mxCell id="Wab1xlXWel476RkCuXvU-115" style="edgeStyle=orthogonalEdgeStyle;rounded=0;orthogonalLoop=1;jettySize=auto;html=1;entryX=0.5;entryY=1;entryDx=0;entryDy=0;endArrow=none;startFill=0;" parent="1" source="tlFTheRUR7GdCliaLoxq-189" target="tlFTheRUR7GdCliaLoxq-178" edge="1">
          <mxGeometry relative="1" as="geometry">
            <mxPoint x="730" y="820" as="targetPoint" />
            <Array as="points">
              <mxPoint x="730" y="780" />
              <mxPoint x="520" y="780" />
            </Array>
          </mxGeometry>
        </mxCell>
        <mxCell id="tlFTheRUR7GdCliaLoxq-189" value="Заключаются в транспортировке&amp;nbsp;" style="rhombus;whiteSpace=wrap;html=1;fontSize=14;" parent="1" vertex="1">
          <mxGeometry x="640" y="237.5" width="180" height="95" as="geometry" />
        </mxCell>
        <mxCell id="tlFTheRUR7GdCliaLoxq-191" value="" style="endArrow=none;html=1;rounded=0;exitX=1;exitY=0.5;exitDx=0;exitDy=0;entryX=0;entryY=0.25;entryDx=0;entryDy=0;fontSize=14;" parent="1" source="tlFTheRUR7GdCliaLoxq-189" target="tlFTheRUR7GdCliaLoxq-174" edge="1">
          <mxGeometry width="50" height="50" relative="1" as="geometry">
            <mxPoint x="834" y="295" as="sourcePoint" />
            <mxPoint x="884" y="245" as="targetPoint" />
          </mxGeometry>
        </mxCell>
        <mxCell id="tlFTheRUR7GdCliaLoxq-194" style="edgeStyle=orthogonalEdgeStyle;rounded=0;orthogonalLoop=1;jettySize=auto;html=1;exitX=1;exitY=0.5;exitDx=0;exitDy=0;entryX=0;entryY=0.5;entryDx=0;entryDy=0;endArrow=none;startFill=0;fontSize=14;" parent="1" source="tlFTheRUR7GdCliaLoxq-195" target="tlFTheRUR7GdCliaLoxq-210" edge="1">
          <mxGeometry relative="1" as="geometry" />
        </mxCell>
        <mxCell id="tlFTheRUR7GdCliaLoxq-195" value="Пассажирские аэропорты" style="rounded=0;whiteSpace=wrap;html=1;fontSize=14;" parent="1" vertex="1">
          <mxGeometry x="1592" y="328" width="120" height="60" as="geometry" />
        </mxCell>
        <mxCell id="tlFTheRUR7GdCliaLoxq-196" style="edgeStyle=orthogonalEdgeStyle;rounded=0;orthogonalLoop=1;jettySize=auto;html=1;exitX=1;exitY=0.5;exitDx=0;exitDy=0;entryX=0;entryY=0.5;entryDx=0;entryDy=0;endArrow=none;startFill=0;fontSize=14;" parent="1" source="tlFTheRUR7GdCliaLoxq-197" target="tlFTheRUR7GdCliaLoxq-195" edge="1">
          <mxGeometry relative="1" as="geometry" />
        </mxCell>
        <mxCell id="tlFTheRUR7GdCliaLoxq-197" value="Являются" style="rhombus;whiteSpace=wrap;html=1;fontSize=14;" parent="1" vertex="1">
          <mxGeometry x="1492" y="333" width="80" height="50" as="geometry" />
        </mxCell>
        <mxCell id="tlFTheRUR7GdCliaLoxq-205" style="edgeStyle=orthogonalEdgeStyle;rounded=0;orthogonalLoop=1;jettySize=auto;html=1;exitX=0.5;exitY=1;exitDx=0;exitDy=0;fontSize=14;" parent="1" edge="1">
          <mxGeometry relative="1" as="geometry">
            <mxPoint x="1781.5" y="470" as="sourcePoint" />
            <mxPoint x="1781.5" y="470" as="targetPoint" />
          </mxGeometry>
        </mxCell>
        <mxCell id="tlFTheRUR7GdCliaLoxq-215" style="edgeStyle=orthogonalEdgeStyle;rounded=0;orthogonalLoop=1;jettySize=auto;html=1;exitX=0.5;exitY=1;exitDx=0;exitDy=0;entryX=0.5;entryY=0;entryDx=0;entryDy=0;endArrow=none;startFill=0;fontSize=14;" parent="1" source="tlFTheRUR7GdCliaLoxq-208" target="tlFTheRUR7GdCliaLoxq-214" edge="1">
          <mxGeometry relative="1" as="geometry" />
        </mxCell>
        <mxCell id="Wab1xlXWel476RkCuXvU-10" style="edgeStyle=orthogonalEdgeStyle;rounded=0;orthogonalLoop=1;jettySize=auto;html=1;exitX=1;exitY=0.75;exitDx=0;exitDy=0;entryX=0.5;entryY=0;entryDx=0;entryDy=0;endArrow=none;startFill=0;" parent="1" source="tlFTheRUR7GdCliaLoxq-208" target="Wab1xlXWel476RkCuXvU-6" edge="1">
          <mxGeometry relative="1" as="geometry" />
        </mxCell>
        <mxCell id="tlFTheRUR7GdCliaLoxq-208" value="Пассажирские самолеты" style="rounded=0;whiteSpace=wrap;html=1;fontSize=14;" parent="1" vertex="1">
          <mxGeometry x="1834" y="585" width="120" height="40" as="geometry" />
        </mxCell>
        <mxCell id="tlFTheRUR7GdCliaLoxq-209" style="edgeStyle=orthogonalEdgeStyle;rounded=0;orthogonalLoop=1;jettySize=auto;html=1;exitX=1;exitY=0.5;exitDx=0;exitDy=0;endArrow=none;startFill=0;fontSize=14;" parent="1" source="tlFTheRUR7GdCliaLoxq-210" target="tlFTheRUR7GdCliaLoxq-211" edge="1">
          <mxGeometry relative="1" as="geometry" />
        </mxCell>
        <mxCell id="tlFTheRUR7GdCliaLoxq-210" value="Есть" style="rhombus;whiteSpace=wrap;html=1;fontSize=14;" parent="1" vertex="1">
          <mxGeometry x="1732" y="338" width="80" height="40" as="geometry" />
        </mxCell>
        <mxCell id="Wab1xlXWel476RkCuXvU-125" style="edgeStyle=orthogonalEdgeStyle;rounded=0;orthogonalLoop=1;jettySize=auto;html=1;exitX=0.5;exitY=1;exitDx=0;exitDy=0;entryX=0.5;entryY=0;entryDx=0;entryDy=0;endArrow=none;startFill=0;" parent="1" source="tlFTheRUR7GdCliaLoxq-211" target="Wab1xlXWel476RkCuXvU-124" edge="1">
          <mxGeometry relative="1" as="geometry" />
        </mxCell>
        <mxCell id="tlFTheRUR7GdCliaLoxq-211" value="Комплексы&lt;div&gt;сооружений&lt;/div&gt;" style="rounded=0;whiteSpace=wrap;html=1;fontSize=14;" parent="1" vertex="1">
          <mxGeometry x="1832" y="328" width="120" height="60" as="geometry" />
        </mxCell>
        <mxCell id="tlFTheRUR7GdCliaLoxq-212" value="" style="endArrow=none;html=1;rounded=0;exitX=1;exitY=0.5;exitDx=0;exitDy=0;fontSize=14;entryX=0;entryY=0.5;entryDx=0;entryDy=0;" parent="1" source="tlFTheRUR7GdCliaLoxq-174" target="tlFTheRUR7GdCliaLoxq-197" edge="1">
          <mxGeometry width="50" height="50" relative="1" as="geometry">
            <mxPoint x="1490" y="335" as="sourcePoint" />
            <mxPoint x="1530" y="355" as="targetPoint" />
          </mxGeometry>
        </mxCell>
        <mxCell id="tlFTheRUR7GdCliaLoxq-217" style="edgeStyle=orthogonalEdgeStyle;rounded=0;orthogonalLoop=1;jettySize=auto;html=1;exitX=0.5;exitY=1;exitDx=0;exitDy=0;entryX=0.5;entryY=0;entryDx=0;entryDy=0;endArrow=none;startFill=0;fontSize=14;" parent="1" target="tlFTheRUR7GdCliaLoxq-216" edge="1">
          <mxGeometry relative="1" as="geometry">
            <mxPoint x="1894" y="690.75" as="sourcePoint" />
          </mxGeometry>
        </mxCell>
        <mxCell id="tlFTheRUR7GdCliaLoxq-214" value="Есть" style="rhombus;whiteSpace=wrap;html=1;fontSize=14;" parent="1" vertex="1">
          <mxGeometry x="1854" y="640.75" width="80" height="50" as="geometry" />
        </mxCell>
        <mxCell id="tlFTheRUR7GdCliaLoxq-228" style="edgeStyle=orthogonalEdgeStyle;rounded=0;orthogonalLoop=1;jettySize=auto;html=1;entryX=1;entryY=0.5;entryDx=0;entryDy=0;endArrow=none;startFill=0;fontSize=14;" parent="1" source="tlFTheRUR7GdCliaLoxq-216" target="tlFTheRUR7GdCliaLoxq-229" edge="1">
          <mxGeometry relative="1" as="geometry">
            <mxPoint x="1584.5" y="820.75" as="targetPoint" />
          </mxGeometry>
        </mxCell>
        <mxCell id="tlFTheRUR7GdCliaLoxq-216" value="Воздушные суда" style="rounded=0;whiteSpace=wrap;html=1;fontSize=14;" parent="1" vertex="1">
          <mxGeometry x="1833" y="708" width="120" height="40" as="geometry" />
        </mxCell>
        <mxCell id="tlFTheRUR7GdCliaLoxq-218" value="Максимальный вес багажа" style="ellipse;whiteSpace=wrap;html=1;fontSize=14;" parent="1" vertex="1">
          <mxGeometry x="2098" y="520" width="120" height="50" as="geometry" />
        </mxCell>
        <mxCell id="tlFTheRUR7GdCliaLoxq-219" value="Максимальное количество пассажиров" style="ellipse;whiteSpace=wrap;html=1;fontSize=14;" parent="1" vertex="1">
          <mxGeometry x="2098" y="572.75" width="140" height="70" as="geometry" />
        </mxCell>
        <mxCell id="tlFTheRUR7GdCliaLoxq-220" value="" style="endArrow=none;html=1;rounded=0;entryX=1;entryY=0.25;entryDx=0;entryDy=0;exitX=0;exitY=0.5;exitDx=0;exitDy=0;fontSize=14;" parent="1" source="tlFTheRUR7GdCliaLoxq-218" target="tlFTheRUR7GdCliaLoxq-208" edge="1">
          <mxGeometry width="50" height="50" relative="1" as="geometry">
            <mxPoint x="2108" y="535" as="sourcePoint" />
            <mxPoint x="1543" y="720.75" as="targetPoint" />
          </mxGeometry>
        </mxCell>
        <mxCell id="tlFTheRUR7GdCliaLoxq-221" value="" style="endArrow=none;html=1;rounded=0;exitX=1;exitY=0.5;exitDx=0;exitDy=0;entryX=0.052;entryY=0.27;entryDx=0;entryDy=0;entryPerimeter=0;fontSize=14;" parent="1" source="tlFTheRUR7GdCliaLoxq-208" target="tlFTheRUR7GdCliaLoxq-219" edge="1">
          <mxGeometry width="50" height="50" relative="1" as="geometry">
            <mxPoint x="1893" y="880.75" as="sourcePoint" />
            <mxPoint x="1943" y="830.75" as="targetPoint" />
          </mxGeometry>
        </mxCell>
        <mxCell id="tlFTheRUR7GdCliaLoxq-224" value="Пассажиры" style="rounded=0;whiteSpace=wrap;html=1;fontSize=14;" parent="1" vertex="1">
          <mxGeometry x="156" y="633" width="120" height="40" as="geometry" />
        </mxCell>
        <mxCell id="tlFTheRUR7GdCliaLoxq-227" style="edgeStyle=orthogonalEdgeStyle;rounded=0;orthogonalLoop=1;jettySize=auto;html=1;exitX=0.5;exitY=1;exitDx=0;exitDy=0;entryX=0.5;entryY=0;entryDx=0;entryDy=0;endArrow=none;startFill=0;fontSize=14;" parent="1" source="tlFTheRUR7GdCliaLoxq-225" target="tlFTheRUR7GdCliaLoxq-224" edge="1">
          <mxGeometry relative="1" as="geometry" />
        </mxCell>
        <mxCell id="tlFTheRUR7GdCliaLoxq-225" value="Являются" style="rhombus;whiteSpace=wrap;html=1;fontSize=14;" parent="1" vertex="1">
          <mxGeometry x="169" y="550" width="100" height="50" as="geometry" />
        </mxCell>
        <mxCell id="tlFTheRUR7GdCliaLoxq-229" value="Осуществляют&lt;div&gt;&amp;nbsp;перевозку&lt;/div&gt;" style="rhombus;whiteSpace=wrap;html=1;fontSize=14;" parent="1" vertex="1">
          <mxGeometry x="1434.5" y="688" width="150" height="80" as="geometry" />
        </mxCell>
        <mxCell id="Wab1xlXWel476RkCuXvU-3" style="edgeStyle=orthogonalEdgeStyle;rounded=0;orthogonalLoop=1;jettySize=auto;html=1;exitX=0;exitY=0.5;exitDx=0;exitDy=0;endArrow=none;startFill=0;entryX=0.5;entryY=1;entryDx=0;entryDy=0;" parent="1" source="tlFTheRUR7GdCliaLoxq-229" target="tlFTheRUR7GdCliaLoxq-224" edge="1">
          <mxGeometry relative="1" as="geometry">
            <mxPoint x="206" y="670" as="targetPoint" />
          </mxGeometry>
        </mxCell>
        <mxCell id="Wab1xlXWel476RkCuXvU-22" style="edgeStyle=orthogonalEdgeStyle;rounded=0;orthogonalLoop=1;jettySize=auto;html=1;exitX=1;exitY=0.5;exitDx=0;exitDy=0;entryX=0;entryY=0.5;entryDx=0;entryDy=0;endArrow=none;startFill=0;" parent="1" source="Wab1xlXWel476RkCuXvU-6" target="Wab1xlXWel476RkCuXvU-21" edge="1">
          <mxGeometry relative="1" as="geometry" />
        </mxCell>
        <mxCell id="Wab1xlXWel476RkCuXvU-134" style="edgeStyle=orthogonalEdgeStyle;rounded=0;orthogonalLoop=1;jettySize=auto;html=1;exitX=0.5;exitY=1;exitDx=0;exitDy=0;entryX=0.5;entryY=0;entryDx=0;entryDy=0;endArrow=none;startFill=0;" parent="1" source="Wab1xlXWel476RkCuXvU-6" target="Wab1xlXWel476RkCuXvU-133" edge="1">
          <mxGeometry relative="1" as="geometry" />
        </mxCell>
        <mxCell id="Wab1xlXWel476RkCuXvU-6" value="Определяют" style="rhombus;whiteSpace=wrap;html=1;" parent="1" vertex="1">
          <mxGeometry x="2018" y="667.75" width="110" height="70" as="geometry" />
        </mxCell>
        <mxCell id="Wab1xlXWel476RkCuXvU-12" value="Маршруты" style="rounded=0;whiteSpace=wrap;html=1;fontSize=14;" parent="1" vertex="1">
          <mxGeometry x="750" y="385" width="120" height="40" as="geometry" />
        </mxCell>
        <mxCell id="Wab1xlXWel476RkCuXvU-16" style="edgeStyle=orthogonalEdgeStyle;rounded=0;orthogonalLoop=1;jettySize=auto;html=1;exitX=0;exitY=0.5;exitDx=0;exitDy=0;entryX=1;entryY=0.5;entryDx=0;entryDy=0;endArrow=none;startFill=0;" parent="1" source="Wab1xlXWel476RkCuXvU-15" target="Wab1xlXWel476RkCuXvU-12" edge="1">
          <mxGeometry relative="1" as="geometry" />
        </mxCell>
        <mxCell id="Wab1xlXWel476RkCuXvU-18" style="edgeStyle=orthogonalEdgeStyle;rounded=0;orthogonalLoop=1;jettySize=auto;html=1;exitX=1;exitY=0.5;exitDx=0;exitDy=0;entryX=0;entryY=0.5;entryDx=0;entryDy=0;endArrow=none;startFill=0;" parent="1" source="Wab1xlXWel476RkCuXvU-15" target="Wab1xlXWel476RkCuXvU-17" edge="1">
          <mxGeometry relative="1" as="geometry" />
        </mxCell>
        <mxCell id="Wab1xlXWel476RkCuXvU-15" value="Включают&amp;nbsp;&lt;div&gt;в себя&lt;/div&gt;" style="rhombus;whiteSpace=wrap;html=1;fontSize=14;" parent="1" vertex="1">
          <mxGeometry x="890" y="365" width="113" height="80" as="geometry" />
        </mxCell>
        <mxCell id="Wab1xlXWel476RkCuXvU-20" style="edgeStyle=orthogonalEdgeStyle;rounded=0;orthogonalLoop=1;jettySize=auto;html=1;exitX=1;exitY=0.5;exitDx=0;exitDy=0;entryX=0;entryY=0.5;entryDx=0;entryDy=0;endArrow=none;startFill=0;" parent="1" source="Wab1xlXWel476RkCuXvU-17" target="Wab1xlXWel476RkCuXvU-19" edge="1">
          <mxGeometry relative="1" as="geometry" />
        </mxCell>
        <mxCell id="Wab1xlXWel476RkCuXvU-17" value="Сегменты маршрутов" style="rounded=0;whiteSpace=wrap;html=1;fontSize=14;" parent="1" vertex="1">
          <mxGeometry x="1010" y="385" width="120" height="40" as="geometry" />
        </mxCell>
        <mxCell id="Wab1xlXWel476RkCuXvU-19" value="Определяют" style="rhombus;whiteSpace=wrap;html=1;" parent="1" vertex="1">
          <mxGeometry x="1170" y="374" width="95" height="62" as="geometry" />
        </mxCell>
        <mxCell id="Wab1xlXWel476RkCuXvU-21" value="Классы обслуживания" style="rounded=0;whiteSpace=wrap;html=1;fontSize=14;" parent="1" vertex="1">
          <mxGeometry x="2182" y="673.25" width="120" height="59" as="geometry" />
        </mxCell>
        <mxCell id="Wab1xlXWel476RkCuXvU-26" value="&lt;font&gt;Авиакомпания&lt;/font&gt;" style="rounded=0;whiteSpace=wrap;html=1;fontSize=14;" parent="1" vertex="1">
          <mxGeometry x="250" y="1215" width="120" height="40" as="geometry" />
        </mxCell>
        <mxCell id="Wab1xlXWel476RkCuXvU-27" value="" style="endArrow=none;html=1;rounded=0;fontSize=14;exitX=1;exitY=0.5;exitDx=0;exitDy=0;entryX=0;entryY=0.5;entryDx=0;entryDy=0;" parent="1" source="Wab1xlXWel476RkCuXvU-26" target="Wab1xlXWel476RkCuXvU-29" edge="1">
          <mxGeometry width="50" height="50" relative="1" as="geometry">
            <mxPoint x="425" y="1325" as="sourcePoint" />
            <mxPoint x="475" y="1275" as="targetPoint" />
          </mxGeometry>
        </mxCell>
        <mxCell id="Wab1xlXWel476RkCuXvU-28" style="edgeStyle=orthogonalEdgeStyle;rounded=0;orthogonalLoop=1;jettySize=auto;html=1;exitX=1;exitY=0.5;exitDx=0;exitDy=0;entryX=0;entryY=0.5;entryDx=0;entryDy=0;strokeColor=none;fontSize=14;" parent="1" source="Wab1xlXWel476RkCuXvU-29" target="Wab1xlXWel476RkCuXvU-30" edge="1">
          <mxGeometry relative="1" as="geometry" />
        </mxCell>
        <mxCell id="Wab1xlXWel476RkCuXvU-29" value="&lt;font&gt;суть&lt;/font&gt;" style="rhombus;whiteSpace=wrap;html=1;fontSize=14;" parent="1" vertex="1">
          <mxGeometry x="410" y="1210" width="80" height="50" as="geometry" />
        </mxCell>
        <mxCell id="Wab1xlXWel476RkCuXvU-30" value="Организация" style="rounded=0;whiteSpace=wrap;html=1;fontSize=14;" parent="1" vertex="1">
          <mxGeometry x="530" y="1215" width="120" height="40" as="geometry" />
        </mxCell>
        <mxCell id="Wab1xlXWel476RkCuXvU-31" value="" style="endArrow=none;html=1;rounded=0;exitX=1;exitY=0.5;exitDx=0;exitDy=0;entryX=0;entryY=0.5;entryDx=0;entryDy=0;fontSize=14;" parent="1" source="Wab1xlXWel476RkCuXvU-29" target="Wab1xlXWel476RkCuXvU-30" edge="1">
          <mxGeometry width="50" height="50" relative="1" as="geometry">
            <mxPoint x="570" y="1345" as="sourcePoint" />
            <mxPoint x="520" y="1235" as="targetPoint" />
          </mxGeometry>
        </mxCell>
        <mxCell id="Wab1xlXWel476RkCuXvU-32" style="edgeStyle=orthogonalEdgeStyle;rounded=0;orthogonalLoop=1;jettySize=auto;html=1;endArrow=none;startFill=0;fontSize=14;" parent="1" source="Wab1xlXWel476RkCuXvU-34" target="Wab1xlXWel476RkCuXvU-30" edge="1">
          <mxGeometry relative="1" as="geometry" />
        </mxCell>
        <mxCell id="Wab1xlXWel476RkCuXvU-33" style="edgeStyle=orthogonalEdgeStyle;rounded=0;orthogonalLoop=1;jettySize=auto;html=1;exitX=0.5;exitY=1;exitDx=0;exitDy=0;entryX=0.5;entryY=0;entryDx=0;entryDy=0;endArrow=none;startFill=0;fontSize=14;" parent="1" source="Wab1xlXWel476RkCuXvU-34" target="Wab1xlXWel476RkCuXvU-37" edge="1">
          <mxGeometry relative="1" as="geometry" />
        </mxCell>
        <mxCell id="Wab1xlXWel476RkCuXvU-34" value="Осуществляет" style="rhombus;whiteSpace=wrap;html=1;fontSize=14;" parent="1" vertex="1">
          <mxGeometry x="525" y="1285" width="130" height="70" as="geometry" />
        </mxCell>
        <mxCell id="Wab1xlXWel476RkCuXvU-35" style="edgeStyle=orthogonalEdgeStyle;rounded=0;orthogonalLoop=1;jettySize=auto;html=1;entryX=0.5;entryY=0;entryDx=0;entryDy=0;endArrow=none;startFill=0;fontSize=14;" parent="1" source="Wab1xlXWel476RkCuXvU-37" target="Wab1xlXWel476RkCuXvU-58" edge="1">
          <mxGeometry relative="1" as="geometry">
            <mxPoint x="130" y="1505" as="targetPoint" />
          </mxGeometry>
        </mxCell>
        <mxCell id="Wab1xlXWel476RkCuXvU-36" style="edgeStyle=orthogonalEdgeStyle;rounded=0;orthogonalLoop=1;jettySize=auto;html=1;endArrow=none;startFill=0;fontSize=14;" parent="1" source="Wab1xlXWel476RkCuXvU-37" edge="1">
          <mxGeometry relative="1" as="geometry">
            <mxPoint x="680" y="1415" as="targetPoint" />
          </mxGeometry>
        </mxCell>
        <mxCell id="Wab1xlXWel476RkCuXvU-37" value="Пассажирские&lt;div&gt;авиаперевозки&lt;/div&gt;" style="whiteSpace=wrap;html=1;fontSize=14;" parent="1" vertex="1">
          <mxGeometry x="530" y="1385" width="120" height="60" as="geometry" />
        </mxCell>
        <mxCell id="Wab1xlXWel476RkCuXvU-38" style="edgeStyle=orthogonalEdgeStyle;rounded=0;orthogonalLoop=1;jettySize=auto;html=1;entryX=0.5;entryY=1;entryDx=0;entryDy=0;endArrow=none;startFill=0;fontSize=14;" parent="1" source="Wab1xlXWel476RkCuXvU-40" target="Wab1xlXWel476RkCuXvU-26" edge="1">
          <mxGeometry relative="1" as="geometry" />
        </mxCell>
        <mxCell id="Wab1xlXWel476RkCuXvU-39" style="edgeStyle=orthogonalEdgeStyle;rounded=0;orthogonalLoop=1;jettySize=auto;html=1;exitX=1;exitY=0.5;exitDx=0;exitDy=0;entryX=0;entryY=0.5;entryDx=0;entryDy=0;endArrow=none;startFill=0;fontSize=14;" parent="1" source="Wab1xlXWel476RkCuXvU-40" target="Wab1xlXWel476RkCuXvU-41" edge="1">
          <mxGeometry relative="1" as="geometry" />
        </mxCell>
        <mxCell id="Wab1xlXWel476RkCuXvU-40" value="Заключает" style="rhombus;whiteSpace=wrap;html=1;fontSize=14;" parent="1" vertex="1">
          <mxGeometry x="270" y="1505" width="80" height="60" as="geometry" />
        </mxCell>
        <mxCell id="Wab1xlXWel476RkCuXvU-41" value="Договоры" style="rounded=0;whiteSpace=wrap;html=1;fontSize=14;" parent="1" vertex="1">
          <mxGeometry x="390" y="1515" width="120" height="40" as="geometry" />
        </mxCell>
        <mxCell id="Wab1xlXWel476RkCuXvU-42" style="edgeStyle=orthogonalEdgeStyle;rounded=0;orthogonalLoop=1;jettySize=auto;html=1;exitX=0.5;exitY=0;exitDx=0;exitDy=0;entryX=0.5;entryY=1;entryDx=0;entryDy=0;endArrow=none;startFill=0;fontSize=14;" parent="1" source="Wab1xlXWel476RkCuXvU-44" target="Wab1xlXWel476RkCuXvU-40" edge="1">
          <mxGeometry relative="1" as="geometry" />
        </mxCell>
        <mxCell id="Wab1xlXWel476RkCuXvU-43" style="edgeStyle=orthogonalEdgeStyle;rounded=0;orthogonalLoop=1;jettySize=auto;html=1;entryX=0.5;entryY=0;entryDx=0;entryDy=0;endArrow=none;startFill=0;fontSize=14;" parent="1" source="Wab1xlXWel476RkCuXvU-44" target="Wab1xlXWel476RkCuXvU-95" edge="1">
          <mxGeometry relative="1" as="geometry" />
        </mxCell>
        <mxCell id="Wab1xlXWel476RkCuXvU-44" value="Люди" style="rounded=0;whiteSpace=wrap;html=1;fontSize=14;" parent="1" vertex="1">
          <mxGeometry x="250" y="1625" width="120" height="40" as="geometry" />
        </mxCell>
        <mxCell id="Wab1xlXWel476RkCuXvU-45" value="" style="edgeStyle=orthogonalEdgeStyle;rounded=0;orthogonalLoop=1;jettySize=auto;html=1;endArrow=none;startFill=0;exitX=1;exitY=0.5;exitDx=0;exitDy=0;fontSize=14;" parent="1" source="Wab1xlXWel476RkCuXvU-41" target="Wab1xlXWel476RkCuXvU-48" edge="1">
          <mxGeometry relative="1" as="geometry">
            <mxPoint x="720" y="1535" as="targetPoint" />
            <mxPoint x="600" y="1535" as="sourcePoint" />
          </mxGeometry>
        </mxCell>
        <mxCell id="Wab1xlXWel476RkCuXvU-46" style="edgeStyle=orthogonalEdgeStyle;rounded=0;orthogonalLoop=1;jettySize=auto;html=1;entryX=1;entryY=0.5;entryDx=0;entryDy=0;endArrow=none;startFill=0;" parent="1" source="Wab1xlXWel476RkCuXvU-48" target="Wab1xlXWel476RkCuXvU-54" edge="1">
          <mxGeometry relative="1" as="geometry" />
        </mxCell>
        <mxCell id="Wab1xlXWel476RkCuXvU-47" style="edgeStyle=orthogonalEdgeStyle;rounded=0;orthogonalLoop=1;jettySize=auto;html=1;entryX=0;entryY=0.5;entryDx=0;entryDy=0;endArrow=none;startFill=0;" parent="1" source="Wab1xlXWel476RkCuXvU-48" target="Wab1xlXWel476RkCuXvU-100" edge="1">
          <mxGeometry relative="1" as="geometry" />
        </mxCell>
        <mxCell id="Wab1xlXWel476RkCuXvU-48" value="Определяют" style="rhombus;whiteSpace=wrap;html=1;fontSize=14;" parent="1" vertex="1">
          <mxGeometry x="640" y="1495" width="120" height="80" as="geometry" />
        </mxCell>
        <mxCell id="Wab1xlXWel476RkCuXvU-49" value="Начальные пункты&lt;div&gt;сегментов маршрутов&lt;/div&gt;" style="rounded=0;whiteSpace=wrap;html=1;fontSize=14;" parent="1" vertex="1">
          <mxGeometry x="1431" y="1400" width="120" height="75" as="geometry" />
        </mxCell>
        <mxCell id="Wab1xlXWel476RkCuXvU-50" value="Конечные пункты сегментов маршрутов" style="rounded=0;whiteSpace=wrap;html=1;fontSize=14;" parent="1" vertex="1">
          <mxGeometry x="1431" y="1505" width="120" height="65" as="geometry" />
        </mxCell>
        <mxCell id="Wab1xlXWel476RkCuXvU-51" value="" style="endArrow=none;html=1;rounded=0;entryX=0;entryY=0.75;entryDx=0;entryDy=0;startFill=0;fontSize=14;exitX=1;exitY=0.5;exitDx=0;exitDy=0;" parent="1" source="Wab1xlXWel476RkCuXvU-106" target="Wab1xlXWel476RkCuXvU-49" edge="1">
          <mxGeometry width="50" height="50" relative="1" as="geometry">
            <mxPoint x="1371" y="1510" as="sourcePoint" />
            <mxPoint x="830" y="1695" as="targetPoint" />
          </mxGeometry>
        </mxCell>
        <mxCell id="Wab1xlXWel476RkCuXvU-52" value="" style="endArrow=none;html=1;rounded=0;entryX=0;entryY=0.75;entryDx=0;entryDy=0;startFill=0;fontSize=14;exitX=1;exitY=0.5;exitDx=0;exitDy=0;" parent="1" source="Wab1xlXWel476RkCuXvU-106" target="Wab1xlXWel476RkCuXvU-50" edge="1">
          <mxGeometry width="50" height="50" relative="1" as="geometry">
            <mxPoint x="1341" y="1554" as="sourcePoint" />
            <mxPoint x="1020" y="1485" as="targetPoint" />
          </mxGeometry>
        </mxCell>
        <mxCell id="Wab1xlXWel476RkCuXvU-53" style="edgeStyle=orthogonalEdgeStyle;rounded=0;orthogonalLoop=1;jettySize=auto;html=1;exitX=0;exitY=0.5;exitDx=0;exitDy=0;entryX=1;entryY=0.5;entryDx=0;entryDy=0;endArrow=none;startFill=0;fontSize=14;" parent="1" source="Wab1xlXWel476RkCuXvU-54" target="Wab1xlXWel476RkCuXvU-56" edge="1">
          <mxGeometry relative="1" as="geometry" />
        </mxCell>
        <mxCell id="Wab1xlXWel476RkCuXvU-54" value="Багаж" style="rounded=0;whiteSpace=wrap;html=1;fontSize=14;" parent="1" vertex="1">
          <mxGeometry x="551" y="1763" width="120" height="40" as="geometry" />
        </mxCell>
        <mxCell id="Wab1xlXWel476RkCuXvU-55" style="edgeStyle=orthogonalEdgeStyle;rounded=0;orthogonalLoop=1;jettySize=auto;html=1;exitX=0;exitY=0.5;exitDx=0;exitDy=0;entryX=1;entryY=0.5;entryDx=0;entryDy=0;endArrow=none;startFill=0;fontSize=14;" parent="1" source="Wab1xlXWel476RkCuXvU-56" target="Wab1xlXWel476RkCuXvU-93" edge="1">
          <mxGeometry relative="1" as="geometry" />
        </mxCell>
        <mxCell id="Wab1xlXWel476RkCuXvU-56" value="Перевозит" style="rhombus;whiteSpace=wrap;html=1;fontSize=14;" parent="1" vertex="1">
          <mxGeometry x="425" y="1758" width="100" height="50" as="geometry" />
        </mxCell>
        <mxCell id="Wab1xlXWel476RkCuXvU-57" style="edgeStyle=orthogonalEdgeStyle;rounded=0;orthogonalLoop=1;jettySize=auto;html=1;exitX=0.5;exitY=1;exitDx=0;exitDy=0;entryX=0;entryY=0.5;entryDx=0;entryDy=0;endArrow=none;startFill=0;" parent="1" source="Wab1xlXWel476RkCuXvU-58" target="Wab1xlXWel476RkCuXvU-93" edge="1">
          <mxGeometry relative="1" as="geometry" />
        </mxCell>
        <mxCell id="Wab1xlXWel476RkCuXvU-58" value="Заключаются в транспортировке" style="rhombus;whiteSpace=wrap;html=1;fontSize=14;" parent="1" vertex="1">
          <mxGeometry x="110" y="1540" width="150" height="80" as="geometry" />
        </mxCell>
        <mxCell id="Wab1xlXWel476RkCuXvU-59" value="" style="endArrow=none;html=1;rounded=0;exitX=0.5;exitY=1;exitDx=0;exitDy=0;entryX=0.5;entryY=1;entryDx=0;entryDy=0;fontSize=14;" parent="1" source="Wab1xlXWel476RkCuXvU-54" target="Wab1xlXWel476RkCuXvU-58" edge="1">
          <mxGeometry width="50" height="50" relative="1" as="geometry">
            <mxPoint x="650" y="1585" as="sourcePoint" />
            <mxPoint x="130" y="1615" as="targetPoint" />
            <Array as="points">
              <mxPoint x="611" y="1830" />
              <mxPoint x="185" y="1830" />
            </Array>
          </mxGeometry>
        </mxCell>
        <mxCell id="Wab1xlXWel476RkCuXvU-60" value="Заключаются в транспортировке&amp;nbsp;&lt;div&gt;между&lt;/div&gt;" style="rhombus;whiteSpace=wrap;html=1;fontSize=14;" parent="1" vertex="1">
          <mxGeometry x="680" y="1367.5" width="180" height="95" as="geometry" />
        </mxCell>
        <mxCell id="Wab1xlXWel476RkCuXvU-61" value="" style="endArrow=none;html=1;rounded=0;exitX=1;exitY=0.5;exitDx=0;exitDy=0;entryX=0;entryY=0.25;entryDx=0;entryDy=0;fontSize=14;" parent="1" source="Wab1xlXWel476RkCuXvU-60" target="Wab1xlXWel476RkCuXvU-49" edge="1">
          <mxGeometry width="50" height="50" relative="1" as="geometry">
            <mxPoint x="925" y="1425" as="sourcePoint" />
            <mxPoint x="975" y="1375" as="targetPoint" />
          </mxGeometry>
        </mxCell>
        <mxCell id="Wab1xlXWel476RkCuXvU-62" value="" style="endArrow=none;html=1;rounded=0;exitX=1;exitY=0.5;exitDx=0;exitDy=0;entryX=0;entryY=0.25;entryDx=0;entryDy=0;fontSize=14;" parent="1" source="Wab1xlXWel476RkCuXvU-60" target="Wab1xlXWel476RkCuXvU-50" edge="1">
          <mxGeometry width="50" height="50" relative="1" as="geometry">
            <mxPoint x="820" y="1635" as="sourcePoint" />
            <mxPoint x="870" y="1585" as="targetPoint" />
          </mxGeometry>
        </mxCell>
        <mxCell id="Wab1xlXWel476RkCuXvU-63" style="edgeStyle=orthogonalEdgeStyle;rounded=0;orthogonalLoop=1;jettySize=auto;html=1;exitX=1;exitY=0.5;exitDx=0;exitDy=0;entryX=0;entryY=0.5;entryDx=0;entryDy=0;endArrow=none;startFill=0;fontSize=14;" parent="1" source="Wab1xlXWel476RkCuXvU-64" target="Wab1xlXWel476RkCuXvU-81" edge="1">
          <mxGeometry relative="1" as="geometry" />
        </mxCell>
        <mxCell id="Wab1xlXWel476RkCuXvU-64" value="Пассажирские аэропорты" style="rounded=0;whiteSpace=wrap;html=1;fontSize=14;" parent="1" vertex="1">
          <mxGeometry x="1683" y="1458" width="120" height="60" as="geometry" />
        </mxCell>
        <mxCell id="Wab1xlXWel476RkCuXvU-65" style="edgeStyle=orthogonalEdgeStyle;rounded=0;orthogonalLoop=1;jettySize=auto;html=1;exitX=1;exitY=0.5;exitDx=0;exitDy=0;entryX=0;entryY=0.5;entryDx=0;entryDy=0;endArrow=none;startFill=0;fontSize=14;" parent="1" source="Wab1xlXWel476RkCuXvU-66" target="Wab1xlXWel476RkCuXvU-64" edge="1">
          <mxGeometry relative="1" as="geometry" />
        </mxCell>
        <mxCell id="Wab1xlXWel476RkCuXvU-66" value="Являются" style="rhombus;whiteSpace=wrap;html=1;fontSize=14;" parent="1" vertex="1">
          <mxGeometry x="1583" y="1463" width="80" height="50" as="geometry" />
        </mxCell>
        <mxCell id="Wab1xlXWel476RkCuXvU-67" style="edgeStyle=orthogonalEdgeStyle;rounded=0;orthogonalLoop=1;jettySize=auto;html=1;entryX=0.5;entryY=1;entryDx=0;entryDy=0;endArrow=none;startFill=0;fontSize=14;" parent="1" source="Wab1xlXWel476RkCuXvU-68" target="Wab1xlXWel476RkCuXvU-82" edge="1">
          <mxGeometry relative="1" as="geometry" />
        </mxCell>
        <mxCell id="Wab1xlXWel476RkCuXvU-68" value="Обеспечивают&lt;div&gt;прием&lt;/div&gt;" style="rhombus;whiteSpace=wrap;html=1;fontSize=14;" parent="1" vertex="1">
          <mxGeometry x="1928" y="1563" width="110" height="105" as="geometry" />
        </mxCell>
        <mxCell id="Wab1xlXWel476RkCuXvU-69" style="edgeStyle=orthogonalEdgeStyle;rounded=0;orthogonalLoop=1;jettySize=auto;html=1;exitX=0.5;exitY=0;exitDx=0;exitDy=0;endArrow=none;startFill=0;fontSize=14;" parent="1" source="Wab1xlXWel476RkCuXvU-71" edge="1">
          <mxGeometry relative="1" as="geometry">
            <mxPoint x="1983" y="1508" as="targetPoint" />
          </mxGeometry>
        </mxCell>
        <mxCell id="Wab1xlXWel476RkCuXvU-70" style="edgeStyle=orthogonalEdgeStyle;rounded=0;orthogonalLoop=1;jettySize=auto;html=1;exitX=0.5;exitY=1;exitDx=0;exitDy=0;entryX=0.5;entryY=0;entryDx=0;entryDy=0;endArrow=none;startFill=0;fontSize=14;" parent="1" source="Wab1xlXWel476RkCuXvU-71" target="Wab1xlXWel476RkCuXvU-79" edge="1">
          <mxGeometry relative="1" as="geometry">
            <Array as="points">
              <mxPoint x="1865" y="1688" />
              <mxPoint x="1983" y="1688" />
            </Array>
          </mxGeometry>
        </mxCell>
        <mxCell id="Wab1xlXWel476RkCuXvU-71" value="Обеспечивают&lt;div&gt;&amp;nbsp;отправку&lt;/div&gt;" style="rhombus;whiteSpace=wrap;html=1;fontSize=14;" parent="1" vertex="1">
          <mxGeometry x="1808" y="1568" width="115" height="100" as="geometry" />
        </mxCell>
        <mxCell id="Wab1xlXWel476RkCuXvU-72" style="edgeStyle=orthogonalEdgeStyle;rounded=0;orthogonalLoop=1;jettySize=auto;html=1;exitX=0.5;exitY=0;exitDx=0;exitDy=0;entryX=0.5;entryY=1;entryDx=0;entryDy=0;endArrow=none;startFill=0;fontSize=14;" parent="1" source="Wab1xlXWel476RkCuXvU-73" target="Wab1xlXWel476RkCuXvU-82" edge="1">
          <mxGeometry relative="1" as="geometry" />
        </mxCell>
        <mxCell id="Wab1xlXWel476RkCuXvU-73" value="Обеспечивают базирование" style="rhombus;whiteSpace=wrap;html=1;fontSize=14;" parent="1" vertex="1">
          <mxGeometry x="2043" y="1558" width="120" height="110" as="geometry" />
        </mxCell>
        <mxCell id="Wab1xlXWel476RkCuXvU-74" style="edgeStyle=orthogonalEdgeStyle;rounded=0;orthogonalLoop=1;jettySize=auto;html=1;exitX=0.5;exitY=1;exitDx=0;exitDy=0;fontSize=14;" parent="1" source="Wab1xlXWel476RkCuXvU-71" target="Wab1xlXWel476RkCuXvU-71" edge="1">
          <mxGeometry relative="1" as="geometry" />
        </mxCell>
        <mxCell id="Wab1xlXWel476RkCuXvU-75" style="edgeStyle=orthogonalEdgeStyle;rounded=0;orthogonalLoop=1;jettySize=auto;html=1;exitX=0.5;exitY=0;exitDx=0;exitDy=0;entryX=0.5;entryY=1;entryDx=0;entryDy=0;endArrow=none;startFill=0;fontSize=14;" parent="1" source="Wab1xlXWel476RkCuXvU-79" target="Wab1xlXWel476RkCuXvU-68" edge="1">
          <mxGeometry relative="1" as="geometry" />
        </mxCell>
        <mxCell id="Wab1xlXWel476RkCuXvU-76" style="edgeStyle=orthogonalEdgeStyle;rounded=0;orthogonalLoop=1;jettySize=auto;html=1;endArrow=none;startFill=0;fontSize=14;" parent="1" source="Wab1xlXWel476RkCuXvU-79" target="Wab1xlXWel476RkCuXvU-73" edge="1">
          <mxGeometry relative="1" as="geometry">
            <Array as="points">
              <mxPoint x="1983" y="1688" />
              <mxPoint x="2103" y="1688" />
            </Array>
          </mxGeometry>
        </mxCell>
        <mxCell id="Wab1xlXWel476RkCuXvU-77" style="edgeStyle=orthogonalEdgeStyle;rounded=0;orthogonalLoop=1;jettySize=auto;html=1;exitX=0.5;exitY=1;exitDx=0;exitDy=0;entryX=0.5;entryY=0;entryDx=0;entryDy=0;endArrow=none;startFill=0;fontSize=14;" parent="1" source="Wab1xlXWel476RkCuXvU-79" target="Wab1xlXWel476RkCuXvU-86" edge="1">
          <mxGeometry relative="1" as="geometry" />
        </mxCell>
        <mxCell id="Wab1xlXWel476RkCuXvU-78" style="edgeStyle=orthogonalEdgeStyle;rounded=0;orthogonalLoop=1;jettySize=auto;html=1;exitX=1;exitY=0.75;exitDx=0;exitDy=0;entryX=0.5;entryY=0;entryDx=0;entryDy=0;endArrow=none;startFill=0;" parent="1" source="Wab1xlXWel476RkCuXvU-79" target="Wab1xlXWel476RkCuXvU-99" edge="1">
          <mxGeometry relative="1" as="geometry" />
        </mxCell>
        <mxCell id="Wab1xlXWel476RkCuXvU-79" value="Пассажирские самолеты" style="rounded=0;whiteSpace=wrap;html=1;fontSize=14;" parent="1" vertex="1">
          <mxGeometry x="1923" y="1713" width="120" height="40" as="geometry" />
        </mxCell>
        <mxCell id="Wab1xlXWel476RkCuXvU-80" style="edgeStyle=orthogonalEdgeStyle;rounded=0;orthogonalLoop=1;jettySize=auto;html=1;exitX=1;exitY=0.5;exitDx=0;exitDy=0;endArrow=none;startFill=0;fontSize=14;" parent="1" source="Wab1xlXWel476RkCuXvU-81" target="Wab1xlXWel476RkCuXvU-82" edge="1">
          <mxGeometry relative="1" as="geometry" />
        </mxCell>
        <mxCell id="Wab1xlXWel476RkCuXvU-81" value="Есть" style="rhombus;whiteSpace=wrap;html=1;fontSize=14;" parent="1" vertex="1">
          <mxGeometry x="1823" y="1468" width="80" height="40" as="geometry" />
        </mxCell>
        <mxCell id="Wab1xlXWel476RkCuXvU-82" value="Комплексы&lt;div&gt;сооружений&lt;/div&gt;" style="rounded=0;whiteSpace=wrap;html=1;fontSize=14;" parent="1" vertex="1">
          <mxGeometry x="1923" y="1458" width="120" height="60" as="geometry" />
        </mxCell>
        <mxCell id="Wab1xlXWel476RkCuXvU-83" value="" style="endArrow=none;html=1;rounded=0;exitX=1;exitY=0.5;exitDx=0;exitDy=0;fontSize=14;entryX=0;entryY=0.5;entryDx=0;entryDy=0;" parent="1" source="Wab1xlXWel476RkCuXvU-49" target="Wab1xlXWel476RkCuXvU-66" edge="1">
          <mxGeometry width="50" height="50" relative="1" as="geometry">
            <mxPoint x="1581" y="1465" as="sourcePoint" />
            <mxPoint x="1621" y="1485" as="targetPoint" />
          </mxGeometry>
        </mxCell>
        <mxCell id="Wab1xlXWel476RkCuXvU-84" value="" style="endArrow=none;html=1;rounded=0;exitX=1;exitY=0.5;exitDx=0;exitDy=0;fontSize=14;entryX=0;entryY=0.5;entryDx=0;entryDy=0;" parent="1" source="Wab1xlXWel476RkCuXvU-50" target="Wab1xlXWel476RkCuXvU-66" edge="1">
          <mxGeometry width="50" height="50" relative="1" as="geometry">
            <mxPoint x="1571" y="1535" as="sourcePoint" />
            <mxPoint x="1621" y="1485" as="targetPoint" />
          </mxGeometry>
        </mxCell>
        <mxCell id="Wab1xlXWel476RkCuXvU-85" style="edgeStyle=orthogonalEdgeStyle;rounded=0;orthogonalLoop=1;jettySize=auto;html=1;exitX=0.5;exitY=1;exitDx=0;exitDy=0;entryX=0.5;entryY=0;entryDx=0;entryDy=0;endArrow=none;startFill=0;fontSize=14;" parent="1" target="Wab1xlXWel476RkCuXvU-88" edge="1">
          <mxGeometry relative="1" as="geometry">
            <mxPoint x="1983" y="1818" as="sourcePoint" />
          </mxGeometry>
        </mxCell>
        <mxCell id="Wab1xlXWel476RkCuXvU-86" value="Есть" style="rhombus;whiteSpace=wrap;html=1;fontSize=14;" parent="1" vertex="1">
          <mxGeometry x="1943" y="1768" width="80" height="50" as="geometry" />
        </mxCell>
        <mxCell id="Wab1xlXWel476RkCuXvU-87" style="edgeStyle=orthogonalEdgeStyle;rounded=0;orthogonalLoop=1;jettySize=auto;html=1;entryX=1;entryY=0.5;entryDx=0;entryDy=0;endArrow=none;startFill=0;fontSize=14;" parent="1" source="Wab1xlXWel476RkCuXvU-88" target="Wab1xlXWel476RkCuXvU-96" edge="1">
          <mxGeometry relative="1" as="geometry">
            <mxPoint x="1576" y="1875" as="targetPoint" />
          </mxGeometry>
        </mxCell>
        <mxCell id="Wab1xlXWel476RkCuXvU-88" value="Воздушные суда" style="rounded=0;whiteSpace=wrap;html=1;fontSize=14;" parent="1" vertex="1">
          <mxGeometry x="1923" y="1838" width="120" height="40" as="geometry" />
        </mxCell>
        <mxCell id="Wab1xlXWel476RkCuXvU-89" value="Максимальный вес багажа" style="ellipse;whiteSpace=wrap;html=1;fontSize=14;" parent="1" vertex="1">
          <mxGeometry x="2187" y="1640" width="120" height="50" as="geometry" />
        </mxCell>
        <mxCell id="Wab1xlXWel476RkCuXvU-90" value="Максимальное количество пассажиров" style="ellipse;whiteSpace=wrap;html=1;fontSize=14;" parent="1" vertex="1">
          <mxGeometry x="2187" y="1700" width="140" height="70" as="geometry" />
        </mxCell>
        <mxCell id="Wab1xlXWel476RkCuXvU-91" value="" style="endArrow=none;html=1;rounded=0;entryX=1;entryY=0.25;entryDx=0;entryDy=0;exitX=0.031;exitY=0.745;exitDx=0;exitDy=0;exitPerimeter=0;fontSize=14;" parent="1" source="Wab1xlXWel476RkCuXvU-89" target="Wab1xlXWel476RkCuXvU-79" edge="1">
          <mxGeometry width="50" height="50" relative="1" as="geometry">
            <mxPoint x="1582" y="1898" as="sourcePoint" />
            <mxPoint x="1632" y="1848" as="targetPoint" />
          </mxGeometry>
        </mxCell>
        <mxCell id="Wab1xlXWel476RkCuXvU-92" value="" style="endArrow=none;html=1;rounded=0;exitX=1;exitY=0.5;exitDx=0;exitDy=0;entryX=0.052;entryY=0.27;entryDx=0;entryDy=0;entryPerimeter=0;fontSize=14;" parent="1" source="Wab1xlXWel476RkCuXvU-79" target="Wab1xlXWel476RkCuXvU-90" edge="1">
          <mxGeometry width="50" height="50" relative="1" as="geometry">
            <mxPoint x="1982" y="2008" as="sourcePoint" />
            <mxPoint x="2032" y="1958" as="targetPoint" />
          </mxGeometry>
        </mxCell>
        <mxCell id="Wab1xlXWel476RkCuXvU-93" value="Пассажиры" style="rounded=0;whiteSpace=wrap;html=1;fontSize=14;" parent="1" vertex="1">
          <mxGeometry x="247" y="1763" width="120" height="40" as="geometry" />
        </mxCell>
        <mxCell id="Wab1xlXWel476RkCuXvU-94" style="edgeStyle=orthogonalEdgeStyle;rounded=0;orthogonalLoop=1;jettySize=auto;html=1;exitX=0.5;exitY=1;exitDx=0;exitDy=0;entryX=0.5;entryY=0;entryDx=0;entryDy=0;endArrow=none;startFill=0;fontSize=14;" parent="1" source="Wab1xlXWel476RkCuXvU-95" target="Wab1xlXWel476RkCuXvU-93" edge="1">
          <mxGeometry relative="1" as="geometry" />
        </mxCell>
        <mxCell id="Wab1xlXWel476RkCuXvU-95" value="Являются" style="rhombus;whiteSpace=wrap;html=1;fontSize=14;" parent="1" vertex="1">
          <mxGeometry x="260" y="1680" width="100" height="50" as="geometry" />
        </mxCell>
        <mxCell id="Wab1xlXWel476RkCuXvU-96" value="Осуществляют&lt;div&gt;&amp;nbsp;перевозку&lt;/div&gt;" style="rhombus;whiteSpace=wrap;html=1;fontSize=14;" parent="1" vertex="1">
          <mxGeometry x="1525.5" y="1818" width="150" height="80" as="geometry" />
        </mxCell>
        <mxCell id="Wab1xlXWel476RkCuXvU-97" style="edgeStyle=orthogonalEdgeStyle;rounded=0;orthogonalLoop=1;jettySize=auto;html=1;exitX=0;exitY=0.5;exitDx=0;exitDy=0;endArrow=none;startFill=0;entryX=0.5;entryY=1;entryDx=0;entryDy=0;" parent="1" source="Wab1xlXWel476RkCuXvU-96" target="Wab1xlXWel476RkCuXvU-93" edge="1">
          <mxGeometry relative="1" as="geometry">
            <mxPoint x="297" y="1800" as="targetPoint" />
          </mxGeometry>
        </mxCell>
        <mxCell id="Wab1xlXWel476RkCuXvU-98" style="edgeStyle=orthogonalEdgeStyle;rounded=0;orthogonalLoop=1;jettySize=auto;html=1;exitX=1;exitY=0.5;exitDx=0;exitDy=0;entryX=0;entryY=0.5;entryDx=0;entryDy=0;endArrow=none;startFill=0;" parent="1" source="Wab1xlXWel476RkCuXvU-99" target="Wab1xlXWel476RkCuXvU-108" edge="1">
          <mxGeometry relative="1" as="geometry" />
        </mxCell>
        <mxCell id="Wab1xlXWel476RkCuXvU-99" value="Определяют" style="rhombus;whiteSpace=wrap;html=1;" parent="1" vertex="1">
          <mxGeometry x="2107" y="1795" width="110" height="70" as="geometry" />
        </mxCell>
        <mxCell id="Wab1xlXWel476RkCuXvU-100" value="Маршруты&lt;div&gt;пассажиров&lt;/div&gt;" style="rounded=0;whiteSpace=wrap;html=1;fontSize=14;" parent="1" vertex="1">
          <mxGeometry x="779.5" y="1513" width="120" height="40" as="geometry" />
        </mxCell>
        <mxCell id="Wab1xlXWel476RkCuXvU-101" style="edgeStyle=orthogonalEdgeStyle;rounded=0;orthogonalLoop=1;jettySize=auto;html=1;exitX=0;exitY=0.5;exitDx=0;exitDy=0;entryX=1;entryY=0.5;entryDx=0;entryDy=0;endArrow=none;startFill=0;" parent="1" source="Wab1xlXWel476RkCuXvU-103" target="Wab1xlXWel476RkCuXvU-100" edge="1">
          <mxGeometry relative="1" as="geometry" />
        </mxCell>
        <mxCell id="Wab1xlXWel476RkCuXvU-102" style="edgeStyle=orthogonalEdgeStyle;rounded=0;orthogonalLoop=1;jettySize=auto;html=1;exitX=1;exitY=0.5;exitDx=0;exitDy=0;entryX=0;entryY=0.5;entryDx=0;entryDy=0;endArrow=none;startFill=0;" parent="1" source="Wab1xlXWel476RkCuXvU-103" target="Wab1xlXWel476RkCuXvU-105" edge="1">
          <mxGeometry relative="1" as="geometry" />
        </mxCell>
        <mxCell id="Wab1xlXWel476RkCuXvU-103" value="Включают&amp;nbsp;&lt;div&gt;в себя&lt;/div&gt;" style="rhombus;whiteSpace=wrap;html=1;fontSize=14;" parent="1" vertex="1">
          <mxGeometry x="918" y="1495" width="113" height="80" as="geometry" />
        </mxCell>
        <mxCell id="Wab1xlXWel476RkCuXvU-104" style="edgeStyle=orthogonalEdgeStyle;rounded=0;orthogonalLoop=1;jettySize=auto;html=1;exitX=1;exitY=0.5;exitDx=0;exitDy=0;entryX=0;entryY=0.5;entryDx=0;entryDy=0;endArrow=none;startFill=0;" parent="1" source="Wab1xlXWel476RkCuXvU-105" target="Wab1xlXWel476RkCuXvU-106" edge="1">
          <mxGeometry relative="1" as="geometry" />
        </mxCell>
        <mxCell id="Wab1xlXWel476RkCuXvU-105" value="Сегменты маршрутов" style="rounded=0;whiteSpace=wrap;html=1;fontSize=14;" parent="1" vertex="1">
          <mxGeometry x="1056" y="1515" width="120" height="40" as="geometry" />
        </mxCell>
        <mxCell id="Wab1xlXWel476RkCuXvU-106" value="Определяют" style="rhombus;whiteSpace=wrap;html=1;" parent="1" vertex="1">
          <mxGeometry x="1231" y="1504" width="95" height="62" as="geometry" />
        </mxCell>
        <mxCell id="Wab1xlXWel476RkCuXvU-107" style="edgeStyle=orthogonalEdgeStyle;rounded=0;orthogonalLoop=1;jettySize=auto;html=1;entryX=0.5;entryY=0;entryDx=0;entryDy=0;endArrow=none;startFill=0;" parent="1" source="Wab1xlXWel476RkCuXvU-108" target="Wab1xlXWel476RkCuXvU-109" edge="1">
          <mxGeometry relative="1" as="geometry">
            <mxPoint x="2441" y="1830" as="targetPoint" />
          </mxGeometry>
        </mxCell>
        <mxCell id="Wab1xlXWel476RkCuXvU-108" value="Классы обслуживания" style="rounded=0;whiteSpace=wrap;html=1;fontSize=14;" parent="1" vertex="1">
          <mxGeometry x="2271" y="1800.5" width="120" height="59" as="geometry" />
        </mxCell>
        <mxCell id="Wab1xlXWel476RkCuXvU-109" value="Количество мест&amp;nbsp;" style="ellipse;whiteSpace=wrap;html=1;fontSize=14;" parent="1" vertex="1">
          <mxGeometry x="2276" y="1878" width="110" height="50" as="geometry" />
        </mxCell>
        <mxCell id="Wab1xlXWel476RkCuXvU-110" value="&lt;font style=&quot;font-size: 14px;&quot;&gt;[ между ]&lt;/font&gt;" style="text;html=1;align=center;verticalAlign=middle;resizable=0;points=[];autosize=1;strokeColor=none;fillColor=none;" parent="1" vertex="1">
          <mxGeometry x="810" y="245.5" width="80" height="30" as="geometry" />
        </mxCell>
        <mxCell id="Wab1xlXWel476RkCuXvU-111" value="Начальные" style="ellipse;whiteSpace=wrap;html=1;" parent="1" vertex="1">
          <mxGeometry x="616" y="165.5" width="110" height="40" as="geometry" />
        </mxCell>
        <mxCell id="Wab1xlXWel476RkCuXvU-112" value="Конечные" style="ellipse;whiteSpace=wrap;html=1;" parent="1" vertex="1">
          <mxGeometry x="738.75" y="165.5" width="111.5" height="40" as="geometry" />
        </mxCell>
        <mxCell id="Wab1xlXWel476RkCuXvU-113" value="" style="endArrow=none;html=1;rounded=0;exitX=1;exitY=0;exitDx=0;exitDy=0;entryX=0.435;entryY=0.925;entryDx=0;entryDy=0;entryPerimeter=0;" parent="1" source="tlFTheRUR7GdCliaLoxq-189" target="Wab1xlXWel476RkCuXvU-112" edge="1">
          <mxGeometry width="50" height="50" relative="1" as="geometry">
            <mxPoint x="916" y="235.5" as="sourcePoint" />
            <mxPoint x="966" y="185.5" as="targetPoint" />
          </mxGeometry>
        </mxCell>
        <mxCell id="Wab1xlXWel476RkCuXvU-114" value="" style="endArrow=none;html=1;rounded=0;exitX=0;exitY=0;exitDx=0;exitDy=0;entryX=0.436;entryY=1;entryDx=0;entryDy=0;entryPerimeter=0;" parent="1" source="tlFTheRUR7GdCliaLoxq-189" target="Wab1xlXWel476RkCuXvU-111" edge="1">
          <mxGeometry width="50" height="50" relative="1" as="geometry">
            <mxPoint x="780" y="266.5" as="sourcePoint" />
            <mxPoint x="813" y="197.5" as="targetPoint" />
          </mxGeometry>
        </mxCell>
        <mxCell id="Wab1xlXWel476RkCuXvU-116" value="" style="endArrow=none;html=1;rounded=0;entryX=0.5;entryY=1;entryDx=0;entryDy=0;startFill=0;" parent="1" target="tlFTheRUR7GdCliaLoxq-224" edge="1">
          <mxGeometry width="50" height="50" relative="1" as="geometry">
            <mxPoint x="520" y="780" as="sourcePoint" />
            <mxPoint x="400" y="870" as="targetPoint" />
            <Array as="points">
              <mxPoint x="216" y="780" />
            </Array>
          </mxGeometry>
        </mxCell>
        <mxCell id="Wab1xlXWel476RkCuXvU-118" value="" style="endArrow=none;html=1;rounded=0;entryX=0;entryY=1;entryDx=0;entryDy=0;exitX=1;exitY=0;exitDx=0;exitDy=0;" parent="1" source="tlFTheRUR7GdCliaLoxq-224" target="tlFTheRUR7GdCliaLoxq-172" edge="1">
          <mxGeometry width="50" height="50" relative="1" as="geometry">
            <mxPoint x="460" y="510" as="sourcePoint" />
            <mxPoint x="510" y="460" as="targetPoint" />
          </mxGeometry>
        </mxCell>
        <mxCell id="Wab1xlXWel476RkCuXvU-119" value="Начальные" style="ellipse;whiteSpace=wrap;html=1;" parent="1" vertex="1">
          <mxGeometry x="1110" y="445" width="110" height="40" as="geometry" />
        </mxCell>
        <mxCell id="Wab1xlXWel476RkCuXvU-120" value="Конечные" style="ellipse;whiteSpace=wrap;html=1;" parent="1" vertex="1">
          <mxGeometry x="1241" y="445" width="111.5" height="40" as="geometry" />
        </mxCell>
        <mxCell id="Wab1xlXWel476RkCuXvU-122" value="" style="endArrow=none;html=1;rounded=0;exitX=1;exitY=1;exitDx=0;exitDy=0;" parent="1" source="Wab1xlXWel476RkCuXvU-19" target="Wab1xlXWel476RkCuXvU-120" edge="1">
          <mxGeometry width="50" height="50" relative="1" as="geometry">
            <mxPoint x="1410" y="540" as="sourcePoint" />
            <mxPoint x="1460" y="490" as="targetPoint" />
          </mxGeometry>
        </mxCell>
        <mxCell id="Wab1xlXWel476RkCuXvU-123" value="" style="endArrow=none;html=1;rounded=0;entryX=0;entryY=1;entryDx=0;entryDy=0;exitX=0.5;exitY=0;exitDx=0;exitDy=0;" parent="1" source="Wab1xlXWel476RkCuXvU-119" target="Wab1xlXWel476RkCuXvU-19" edge="1">
          <mxGeometry width="50" height="50" relative="1" as="geometry">
            <mxPoint x="1000" y="640" as="sourcePoint" />
            <mxPoint x="1050" y="590" as="targetPoint" />
          </mxGeometry>
        </mxCell>
        <mxCell id="Wab1xlXWel476RkCuXvU-132" style="edgeStyle=orthogonalEdgeStyle;rounded=0;orthogonalLoop=1;jettySize=auto;html=1;exitX=0.5;exitY=1;exitDx=0;exitDy=0;endArrow=none;startFill=0;" parent="1" source="Wab1xlXWel476RkCuXvU-124" target="tlFTheRUR7GdCliaLoxq-208" edge="1">
          <mxGeometry relative="1" as="geometry" />
        </mxCell>
        <mxCell id="Wab1xlXWel476RkCuXvU-124" value="Обеспечивают" style="rhombus;whiteSpace=wrap;html=1;" parent="1" vertex="1">
          <mxGeometry x="1834" y="425" width="118" height="55" as="geometry" />
        </mxCell>
        <mxCell id="Wab1xlXWel476RkCuXvU-126" value="Прием" style="rounded=0;whiteSpace=wrap;html=1;" parent="1" vertex="1">
          <mxGeometry x="1998" y="360" width="109" height="40" as="geometry" />
        </mxCell>
        <mxCell id="Wab1xlXWel476RkCuXvU-127" value="Отправка" style="rounded=0;whiteSpace=wrap;html=1;" parent="1" vertex="1">
          <mxGeometry x="1998" y="415" width="109" height="40" as="geometry" />
        </mxCell>
        <mxCell id="Wab1xlXWel476RkCuXvU-128" value="Базирование" style="rounded=0;whiteSpace=wrap;html=1;" parent="1" vertex="1">
          <mxGeometry x="1998" y="470" width="109" height="40" as="geometry" />
        </mxCell>
        <mxCell id="Wab1xlXWel476RkCuXvU-129" value="" style="endArrow=none;html=1;rounded=0;entryX=0;entryY=0.5;entryDx=0;entryDy=0;exitX=1;exitY=0.5;exitDx=0;exitDy=0;" parent="1" source="Wab1xlXWel476RkCuXvU-124" target="Wab1xlXWel476RkCuXvU-126" edge="1">
          <mxGeometry width="50" height="50" relative="1" as="geometry">
            <mxPoint x="1730" y="540" as="sourcePoint" />
            <mxPoint x="1780" y="490" as="targetPoint" />
          </mxGeometry>
        </mxCell>
        <mxCell id="Wab1xlXWel476RkCuXvU-130" value="" style="endArrow=none;html=1;rounded=0;entryX=0;entryY=0.5;entryDx=0;entryDy=0;exitX=1;exitY=0.5;exitDx=0;exitDy=0;" parent="1" source="Wab1xlXWel476RkCuXvU-124" target="Wab1xlXWel476RkCuXvU-127" edge="1">
          <mxGeometry width="50" height="50" relative="1" as="geometry">
            <mxPoint x="1940" y="580" as="sourcePoint" />
            <mxPoint x="1990" y="530" as="targetPoint" />
          </mxGeometry>
        </mxCell>
        <mxCell id="Wab1xlXWel476RkCuXvU-131" value="" style="endArrow=none;html=1;rounded=0;entryX=0;entryY=0.5;entryDx=0;entryDy=0;exitX=1;exitY=0.5;exitDx=0;exitDy=0;" parent="1" source="Wab1xlXWel476RkCuXvU-124" target="Wab1xlXWel476RkCuXvU-128" edge="1">
          <mxGeometry width="50" height="50" relative="1" as="geometry">
            <mxPoint x="1940" y="570" as="sourcePoint" />
            <mxPoint x="1990" y="520" as="targetPoint" />
          </mxGeometry>
        </mxCell>
        <mxCell id="Wab1xlXWel476RkCuXvU-133" value="Количество мест&amp;nbsp;" style="ellipse;whiteSpace=wrap;html=1;fontSize=14;" parent="1" vertex="1">
          <mxGeometry x="2018" y="758" width="110" height="50" as="geometry" />
        </mxCell>
        <mxCell id="qipVYLUrVsvoNyftUCuU-2" value="" style="endArrow=none;html=1;rounded=0;exitX=1;exitY=0.5;exitDx=0;exitDy=0;entryX=0.5;entryY=0;entryDx=0;entryDy=0;" edge="1" parent="1" source="tlFTheRUR7GdCliaLoxq-189" target="Wab1xlXWel476RkCuXvU-17">
          <mxGeometry width="50" height="50" relative="1" as="geometry">
            <mxPoint x="1040" y="220" as="sourcePoint" />
            <mxPoint x="1090" y="170" as="targetPoint" />
          </mxGeometry>
        </mxCell>
      </root>
    </mxGraphModel>
  </diagram>
</mxfile>
